<?xml version="1.0" encoding="utf-8"?>
<!-- Generator: Adobe Illustrator 18.0.0, SVG Export Plug-In . SVG Version: 6.00 Build 0)  -->
<!DOCTYPE svg PUBLIC "-//W3C//DTD SVG 1.1//EN" "http://www.w3.org/Graphics/SVG/1.1/DTD/svg11.dtd">
<svg version="1.1" id="Layer_1" xmlns="http://www.w3.org/2000/svg" xmlns:xlink="http://www.w3.org/1999/xlink" x="0px" y="0px"
	 viewBox="19.5 24 397.5 514.4" enable-background="new 19.5 24 397.5 514.4" xml:space="preserve">
<path d="M103.2,166.8L87.3,190l-6.1,10.4l1.2,44.1l-3.7,19.6l-2.4,34.3l-3.7,24.5L61,357.1l-3.7,20.8l-11,31.2l1.8,21.4l10.4,11.6
	l19,1.8l39.8,3.1h44.7l21.4-3.7l24.5,15.9l33,5.5l62.4-0.6l63,0.6l12.9-3.1l20.2-15.3l0.6-25.7l-22-12.2l-21.4-6.7l-29.4-0.6h-33.7
	H269l10.4-17.7l8.6-31.8l3.1-46.5l-3.1-28.8l-3.1-26.9l-11.6-16.5l-22-16.5L230.5,198l-19.6-17.1l-21.4-55.1l-18.4-30l-19-11.6
	l-9.8,8l-16.5,28.8L103.2,166.8z M129.5,161.3l-12.9,17.1l12.9-3.7l4.9-13.5l9.2,0.6l13.5-3.1h6.7l-9.8-24.5l-24.5,18.4
	C129.5,152.1,129.5,161.3,129.5,161.3z M109.3,232.3l19,24.5l24.5-2.4l33.7-9.2l14.7,21.4l12.2,34.9l9.2,20.8l-8,12.2l-7.3,5.5
	l-11.6,4.9l-27.5,8.6l-15.3,19l-6.1,9.2l-24.5,8l-22,6.1l3.7-21.4v-17.7v-20.8v-17.1l1.8-18.4l3.7-8.6l11.6-4.3l1.2-11l-8.6-15.3
	l-6.1-9.2L109.3,232.3z"/>
</svg>
