<?xml version="1.0" encoding="utf-8"?>
<!-- Generator: Adobe Illustrator 18.0.0, SVG Export Plug-In . SVG Version: 6.00 Build 0)  -->
<!DOCTYPE svg PUBLIC "-//W3C//DTD SVG 1.1//EN" "http://www.w3.org/Graphics/SVG/1.1/DTD/svg11.dtd">
<svg version="1.1" id="Layer_1" xmlns="http://www.w3.org/2000/svg" xmlns:xlink="http://www.w3.org/1999/xlink" x="0px" y="0px"
	 viewBox="11.3 6 78.2 60.2" enable-background="new 11.3 6 78.2 60.2" xml:space="preserve">
<g id="Captions">
</g>
<g id="Your_Icon">
	<g>
		<path d="M43.1,46.8l-3,1.5c2.1,3.8,6.3,6.4,10.8,6.4v-3.4C47.2,51.3,44.6,49.5,43.1,46.8z"/>
		<path d="M87,19.6l-24.8-6.3L60.6,8l0.1-0.2h-0.2H39.8h-0.2l0.1,0.1l-1.6,5.7l-25.1,6h0v34.8h18.7c4,5.9,10.8,9.7,18.4,9.7
			s14.4-3.8,18.4-9.7h18.6V19.6H87z M50.2,56.7c-8.1,0-14.6-6.5-14.6-14.6c0-8.1,6.5-14.6,14.6-14.6s14.6,6.5,14.6,14.6
			C64.8,50.2,58.2,56.7,50.2,56.7z"/>
	</g>
</g>
</svg>
