<?xml version="1.0" encoding="utf-8"?>
<!-- Generator: Adobe Illustrator 18.0.0, SVG Export Plug-In . SVG Version: 6.00 Build 0)  -->
<!DOCTYPE svg PUBLIC "-//W3C//DTD SVG 1.1//EN" "http://www.w3.org/Graphics/SVG/1.1/DTD/svg11.dtd">
<svg version="1.1" id="Layer_1" xmlns="http://www.w3.org/2000/svg" xmlns:xlink="http://www.w3.org/1999/xlink" x="0px" y="0px"
	 viewBox="85 229 446 305" enable-background="new 85 229 446 305" xml:space="preserve">
<path id="nipple" d="M315.2,377c-1.2,0.6-1.8,1.2-1.8,2.4s1.2,1.2,3.1,0.6c1.2-0.6,1.8-1.2,1.8-2.4C317.6,377,316.4,376.4,315.2,377
	z"/>
<path id="eye" d="M246.6,422.9c-1.2,1.2-1.8,2.4-1.2,3.1c0.6,0.6,1.8,0,3.1-1.2s1.8-2.4,1.2-3.1
	C249.1,421.1,247.9,422.3,246.6,422.9z"/>
<path id="body" d="M495.7,473.1c-1.2-3.1-3.1-6.7-4.9-11c-3.1-7.3-7.3-15.9-10.4-23.9c-0.6-1.2-1.2-3.1-1.8-4.9l0,0
	c-0.6-1.8-1.2-3.7-1.8-5.5c-4.3-14.1-9.8-31.2-20.8-44.7c-5.5-6.1-7.3-11-8.6-14.7c-0.6-1.2-0.6-1.8-1.2-3.1
	c-4.3-8.6-9.8-26.9-15.3-44.7c-0.6-1.2-1.2-5.5-1.2-7.3c0-0.6,0-1.8,0-3.1c0-9.2-0.6-31.2-20.8-37.9c-13.5-4.3-30,4.9-42.2,12.2
	l-3.1,1.8c-2.4,1.2-4.9,2.4-6.7,3.1c-10.4,3.7-41.6,19.6-56.3,29.4c-15.3,10.4-30,25.7-42.2,37.3c-2.4,2.4-4.3,4.3-6.1,6.1l0,0l0,0
	c-1.2,0.6-3.1,3.1-3.1,3.1s-4.3,3.7-5.5,4.9c-1.8,1.8-5.5,1.8-9.2,2.4c-1.8,0-3.7,0.6-5.5,0.6c-6.7,1.2-11.6,3.7-15.9,6.7
	c-0.6-0.6-1.8-1.8-3.1-1.8c-5.5-2.4-12.9,1.8-15.3,8.6c-2.4,6.7-0.6,13.5,4.3,16.5c0,4.3,0.6,8.6,2.4,11.6
	c-9.2,7.3-20.2,17.7-30,27.5c-10.4,9.8-22,20.8-25.1,22c-1.8,0.6-4.9,1.2-8.6,2.4c-4.9,1.2-9.8,3.1-12.9,3.7
	c-4.9,1.2-15.3,2.4-20.8,3.1c-4.3,0.6-6.1,3.1-6.1,6.1c0,3.1,3.1,5.5,8,5.5h0.6l0,0c0,0.6,0.6,1.2,1.2,1.2c0.6,0.6,1.8,1.8,4.3,1.8
	c0,0,0,0,0.6,0c3.1,0,6.7-0.6,9.8-1.2c3.7-0.6,7.3-1.2,9.2-0.6c5.5,1.2,23.9,0.6,23.9,0.6c3.1,0,5.5-2.4,7.3-6.1
	c1.2-2.4,1.8-4.9,5.5-7.3c4.3-3.1,39.2-26.3,57.5-38.6c4.9,1.8,8.6,2.4,11.6,2.4c6.1,0,9.8-3.1,12.9-6.1c4.9-4.9,8.6-4.9,12.2-4.9
	h1.2c2.4,0,4.9-1.2,6.7-3.1c1.2-1.8,1.8-4.9,0.6-6.7c0-0.6,1.8-1.8,3.1-3.1c0,0,3.1-3.1,4.3-3.7c2.4-1.8,4.9-3.1,4.9-5.5
	c0-2.4-3.7-8-8-10.4c1.2-1.2,2.4-2.4,3.1-3.1c0.6-0.6,2.4-2.4,4.9-4.9l0,0c1.8,0,3.7,0.6,5.5,1.2c3.1,0.6,6.1,1.8,11,1.8
	c3.7,0,8-0.6,14.1-1.8c15.9-4.3,26.9-18.4,33.7-26.9c1.2-1.8,2.4-3.1,3.1-4.3c4.9-5.5,22-19,28.8-25.1l0,0
	c6.7,16.5,25.7,49.6,33,53.2c0.6,0.6,1.2,1.2,1.8,2.4c1.8,3.1,5.5,8,9.8,10.4c6.7,3.7,23.9,30,28.2,37.9c1.2,1.8,2.4,4.9,4.3,8
	c5.5,11.6,5.5,14.1,5.5,14.7c0,1.8-1.2,6.1-3.1,7.3c-7.3,3.1-14.1,6.1-22.6,11c-0.6,0.6-4.3,0.6-6.1,0.6s-3.1,0-3.7,0.6
	c-1.8,0.6-3.1,1.8-3.7,3.7c-0.6,1.8,0,3.7,1.2,4.9c1.8,1.8,5.5,2.4,9.8,2.4c0.6,0,0.6,0,1.2,0c1.2,0,4.3,0,7.3-0.6
	c9.2-0.6,23.9-1.8,28.8-1.2c0.6,0,19.6,1.8,23.9-0.6C497.6,483.5,496.9,476.2,495.7,473.1z M274.2,406.4c-0.6-0.6-1.8-0.6-2.4-1.2
	h-0.6c-1.2,0-2.4,0.6-2.4,2.4c0,0.6,0,1.2,0.6,1.8c0.6,0,1.8,0.6,2.4,1.2l-0.6,0.6c-3.1,2.4-5.5,4.9-4.3,8c0.6,1.2,0.6,2.4,0,3.1
	c-0.6,1.2-1.8,1.2-2.4,1.2h-1.2c-4.3,0-9.2-0.6-15.9,6.1c-3.7,3.7-6.7,6.7-16.5,3.7c1.8-1.2,3.1-2.4,4.3-3.1
	c8-4.9,25.7-21.4,36.7-32.4c3.1,1.8,6.1,6.1,6.7,6.7c0,0.6-1.8,1.8-3.1,2.4 M345.8,353.2c-1.2,1.2-1.8,2.4-3.7,4.3
	c-6.1,8-16.5,21.4-31.2,25.1c-12.2,3.1-17.7,1.8-22.6,0.6c-0.6,0-1.2-0.6-2.4-0.6c3.7-3.1,7.3-4.9,9.8-5.5c1.2-0.6,1.8-1.8,1.8-3.1
	c-0.6-1.2-1.8-1.8-3.1-1.8c-4.9,1.2-11,6.1-15.3,9.2c-3.1,2.4-4.9,4.9-6.1,6.1c-1.2,1.2-2.4,3.1-4.9,4.9
	c-10.4,10.4-28.8,27.5-36.7,32.4c-1.2,0.6-3.7,2.4-6.7,4.3c0,0-55.7,36.7-60.6,40.4c-4.3,3.7-5.5,6.1-6.7,9.2
	c-0.6,1.2-1.8,3.1-3.7,3.1c-4.9,0-19,0.6-22.6-0.6c-2.4-0.6-6.1,0-11,0.6c-3.1,0.6-6.1,0.6-9.2,1.2c-1.2,0-1.2,0-1.2-0.6
	c1.2,0,10.4-1.8,15.9-3.1c1.2,0,1.8-1.2,1.8-2.4s-1.2-1.8-2.4-1.8c-5.5,1.2-14.7,3.1-15.9,3.1c-1.2,0-2.4,1.2-3.1,1.8h-0.6
	c-3.1,0-4.3-0.6-4.3-1.2c0-0.6,0.6-0.6,1.8-1.2c4.3-0.6,15.3-1.8,20.8-3.1c3.1-0.6,8.6-2.4,13.5-3.7c3.7-1.2,6.7-1.8,8.6-2.4
	c3.7-1.2,12.2-9.2,26.9-22.6c10.4-10.4,22.6-21.4,31.8-28.8c4.9-3.7,8.6-6.1,10.4-6.7c1.2-0.6,6.7-4.9,6.7-4.9
	c5.5-4.9,13.5-13.5,15.9-17.7l0.6-1.2c1.8-3.1,5.5-9.2,8-12.2c0.6-1.2,2.4-3.1,4.3-4.9l0,0c0.6-0.6,0.6-0.6,1.2-1.2l0,0
	c1.2-0.6,1.8-1.8,3.1-3.1l0,0l0,0l0,0c6.7-6.1,17.1-14.1,30-17.7c1.2,0,1.8-1.8,1.8-2.4c-0.6-1.2-1.8-1.8-2.4-1.8
	c-4.3,1.2-8,2.4-11,4.3c9.2-9.2,19.6-18.4,30-25.7c41-27.5,38.6-22.6,55.1-29.4c1.2-0.6,1.8-0.6,3.1-1.2c-0.6,8,1.8,17.1,3.7,21.4
	c0,0.6,0.6,1.8,0.6,2.4c1.8,4.9,3.7,10.4,6.7,13.5C364.8,336.6,350.7,348.3,345.8,353.2z M491.4,481.7c-1.8,0.6-12.2,0.6-21.4,0
	c-5.5-0.6-19.6,0.6-29.4,1.2c-3.1,0-6.1,0.6-7.3,0.6c-4.3,0-7.3-0.6-7.3-1.2v-0.6c0.6,0,1.8,0,3.1,0c3.7,0,6.1-0.6,8-1.2
	c8.6-4.9,14.7-7.3,22-10.4c4.9-1.8,5.5-8.6,6.1-10.4c0-1.2,0-3.7-3.7-12.2c0.6,0,1.2,0,1.8,0c2.4,0,5.5-0.6,7.3-1.8
	c2.4-1.2,4.3-2.4,6.1-4.3c3.1,8,6.7,17.1,10.4,23.9c1.8,4.3,3.7,8,4.9,10.4C492.7,476.8,492.7,481.1,491.4,481.7z"/>
</svg>
