<?xml version="1.0" encoding="utf-8"?>
<!-- Generator: Adobe Illustrator 18.0.0, SVG Export Plug-In . SVG Version: 6.00 Build 0)  -->
<!DOCTYPE svg PUBLIC "-//W3C//DTD SVG 1.1//EN" "http://www.w3.org/Graphics/SVG/1.1/DTD/svg11.dtd">
<svg version="1.1" id="Your_Icon" xmlns="http://www.w3.org/2000/svg" xmlns:xlink="http://www.w3.org/1999/xlink" x="0px" y="0px"
	 viewBox="70 10.9 393 508.6" enable-background="new 70 10.9 393 508.6" xml:space="preserve">
<path d="M259,208.5c-6.1,3.1-14.1,6.7-23.3,12.9v0.6c-1.2,6.1-10.4,40.4-25.1,70.4v0.6c-1.8,55.1-15.9,86.9-42.2,94.2
	c-0.6,0-1.8,0.6-2.4,0.6c-3.7,0-7.3-2.4-8-6.1c-1.2-4.3,1.2-9.2,6.1-10.4c8-2.4,20.8-11.6,26.9-46.5c-6.7,8-14.7,14.1-22.6,16.5
	c-2.4,0.6-5.5,1.2-9.2,1.2c-7.3,0-15.9-2.4-25.1-11c-3.7-3.1-3.7-8.6-0.6-12.2c3.1-3.7,8.6-3.7,12.2-0.6c8.6,7.3,14.1,6.7,17.7,6.1
	c11-3.7,22-18.4,31.2-37.9c0-0.6,0.6-1.2,0.6-1.8c7.3-15.3,14.1-33,19-48.3c-17.7,14.1-36.1,33-46.5,57.5c-1.2,3.1-4.3,4.9-8,4.9
	c-1.2,0-2.4,0-3.1-0.6c-4.3-1.8-6.1-6.7-4.3-11c6.1-14.7,14.7-26.9,23.9-37.9c-3.1-9.8-7.3-16.5-12.2-17.7c-4.3-1.8-9.2,1.8-9.2,1.8
	c-3.7,3.1-9.2,2.4-12.2-1.2c-3.1-3.7-2.4-9.2,1.2-12.2c1.2-1.2,12.2-9.2,25.1-5.5c8.6,2.4,15.3,9.2,20.2,20.2
	c2.4-2.4,4.9-4.9,7.3-6.7c1.8-10.4,0.6-18.4-3.7-25.1c-6.7-9.8-19-11.6-19-12.2c-4.9-0.6-8-4.9-7.3-9.8c0.6-4.9,4.9-8,9.8-7.3
	c0.6,0,19.6,3.1,30.6,19c4.3,6.1,6.7,13.5,7.3,21.4c19-13.5,36.7-21.4,44.7-25.1v-123h-22.6V176l0,0c-7.3-11-14.1-19.6-23.3-25.1
	c-6.1-3.7-12.9-5.5-22-6.7c-8-0.6-15.9,0.6-23.3,4.9c-14.7,8.6-23.3,26.3-30.6,41c-9.2,18.4-17.1,37.9-23.3,58.1
	c-11.6,38.6-18.4,80.2-19,120c-1.8,78.9,4.3,76.5,85.1,59.4c80.8-16.5,67.9-63.6,56.9-90c-11.6-26.3,17.7-35.5,22-89.4
	c0.6-4.3,0.6-8.6,0-13.5C259,235.4,259,208.5,259,208.5z"/>
<path d="M276.7,208.5c6.1,3.1,14.1,6.7,23.3,12.9v0.6c1.8,6.1,10.4,40.4,25.1,70.4v0.6c1.8,55.1,15.9,86.9,42.2,94.2
	c0.6,0,1.8,0.6,2.4,0.6c3.7,0,7.3-2.4,8-6.1c1.2-4.3-1.2-9.2-6.1-10.4c-8-2.4-20.8-11.6-26.9-46.5c6.7,8,14.7,14.1,22.6,16.5
	c2.4,0.6,5.5,1.2,9.2,1.2c7.3,0,15.9-2.4,25.1-11c3.7-3.1,3.7-8.6,0.6-12.2c-3.1-3.7-8.6-3.7-12.2-0.6c-8.6,7.3-14.1,6.7-17.7,6.1
	c-11-3.7-22-18.4-31.2-37.9c0-0.6-0.6-1.2-0.6-1.8c-7.3-15.3-14.1-33-19-48.3c17.7,14.1,36.1,33,46.5,57.5c1.2,3.1,4.3,4.9,8,4.9
	c1.2,0,2.4,0,3.1-0.6c4.3-1.8,6.1-6.7,4.3-11c-6.1-14.7-14.7-26.9-23.9-37.9c3.1-9.8,7.3-16.5,12.2-17.7c4.9-1.8,9.8,1.8,9.8,1.8
	c3.7,3.1,9.2,2.4,12.2-1.2c3.1-3.7,2.4-9.2-1.2-12.2c-1.2-1.2-12.2-9.2-25.1-5.5c-8.6,2.4-15.3,9.2-20.2,20.2
	c-2.4-2.4-4.9-4.9-7.3-6.7c-1.8-10.4-0.6-18.4,3.7-25.1c6.7-9.8,19-11.6,19-12.2c4.9-0.6,8-4.9,7.3-9.8c-0.6-4.9-4.9-8-9.8-7.3
	c-0.6,0-19.6,3.1-30.6,19c-4.3,6.1-6.7,13.5-7.3,21.4c-19-13.5-36.7-21.4-44.7-25.1v-123H300V176l0,0c7.3-11,14.1-19.6,23.3-25.1
	c6.1-3.7,12.9-5.5,22-6.7c8-0.6,15.9,0.6,23.3,4.9c14.7,8.6,23.3,26.3,30.6,41c9.2,18.4,17.1,37.9,23.3,58.1
	c11.6,38.6,18.4,80.2,19,120c1.8,78.9-4.3,76.5-85.1,59.4c-81.4-16.5-68.5-63.6-56.9-90c11.6-26.3-17.7-35.5-22-89.4
	c-0.6-4.3-0.6-8.6,0-13.5L276.7,208.5L276.7,208.5z"/>
</svg>
