<?xml version="1.0" encoding="utf-8"?>
<!-- Generator: Adobe Illustrator 18.0.0, SVG Export Plug-In . SVG Version: 6.00 Build 0)  -->
<!DOCTYPE svg PUBLIC "-//W3C//DTD SVG 1.1//EN" "http://www.w3.org/Graphics/SVG/1.1/DTD/svg11.dtd">
<svg version="1.1" id="Capa_38" xmlns="http://www.w3.org/2000/svg" xmlns:xlink="http://www.w3.org/1999/xlink" x="0px" y="0px"
	 viewBox="128 70 361 490" enable-background="new 128 70 361 490" xml:space="preserve">
<g>
	<path d="M263.7,186.1c23.3,23.3,60.6,23.9,83.8,0.6c23.3-23.3,23.9-60.6,0.6-83.8c-23.3-23.3-60.6-23.9-83.8-0.6
		C240.4,125.5,240.4,162.8,263.7,186.1z"/>
	<path d="M444.8,467l-86.9-52.6l-0.6-73.4l11.6,38.6c1.2,3.7,3.1,6.7,5.5,9.8l67.9,72.2h5.5c0.6,0.6,1.2,0.6,1.8,1.2l33.7-31.2
		L416,359.4l-32.4-106.5l0,0c-3.7-16.5-19-29.4-36.7-29.4H271c-17.1,0-31.8,11.6-36.1,27.5l0,0l-31.8,107.7L134.5,429l36.1,34.9
		l72.8-74.7c3.1-3.1,4.9-6.7,6.1-10.4l7.3-25.7l0.6,60.6l-86.9,52.6c-12.2,7.3-17.7,22-14.1,36.1c4.3,13.5,16.5,22.6,30,22
		c0.6,0,0.6,0,1.2,0l32.4-1.2l-3.7-54.5l106.5-2.4l3.7,2.4l-102.2,6.7l4.3,62.4l201.3-13.5c13.5-0.6,25.1-10.4,28.2-23.9
		C462.6,487.8,456.4,473.7,444.8,467z"/>
</g>
</svg>
