<?xml version="1.0" encoding="utf-8"?>
<!-- Generator: Adobe Illustrator 18.0.0, SVG Export Plug-In . SVG Version: 6.00 Build 0)  -->
<!DOCTYPE svg PUBLIC "-//W3C//DTD SVG 1.1//EN" "http://www.w3.org/Graphics/SVG/1.1/DTD/svg11.dtd">
<svg version="1.1" id="Layer_1" xmlns="http://www.w3.org/2000/svg" xmlns:xlink="http://www.w3.org/1999/xlink" x="0px" y="0px"
	 viewBox="90 72.6 356.2 496.6" enable-background="new 90 72.6 356.2 496.6" xml:space="preserve">
<g>
	<path d="M325.3,216.2c0.6-2.4,0.6-3.7,1.2-4.9c1.2-4.3,3.1-8,6.1-9.8c1.8-1.2,4.3,1.2,1.8,3.1c-1.8,1.2-3.7,4.3-4.3,8.6
		c0,1.2,0.6,1.8,0,3.1C328.3,220.5,324.6,222.9,325.3,216.2z M208.4,211.3c-1.2-4.3-3.1-8-6.1-9.8c-1.8-1.2-4.3,1.2-1.8,3.1
		c1.8,1.2,3.7,4.3,4.3,8.6c0,1.2-0.6,1.8,0,3.1c1.2,4.9,5.5,6.7,4.3,0C209,213.7,208.4,212.5,208.4,211.3z M256.7,235.1
		c-1.8,1.8,1.2,4.3,2.4,2.4c0.6-0.6,1.2,0,1.8,0c1.8,1.2,3.7,2.4,6.1,2.4c1.8,0,3.1-0.6,3.7-0.6c1.2-0.6,3.1-2.4,3.7-1.8
		c1.8,1.8,4.3-0.6,2.4-2.4c0,0,0,0-0.6-0.6c-3.7-3.1-6.1,1.8-9.8,1.8C263.4,236.4,261.6,231.5,256.7,235.1
		C257.3,234.5,256.7,235.1,256.7,235.1z M279.4,198.4c5.5-3.7,19-9.2,31.2-5.5c3.7,1.2,4.9-1.2,1.8-3.1c-4.3-2.4-8.6-3.7-13.5-3.7
		c-8-0.6-15.3,2.4-22,6.7C272.6,195.4,275.7,200.9,279.4,198.4z M224.3,192.9c12.2-3.7,26.3,1.8,31.2,5.5c3.7,2.4,6.7-3.1,2.4-5.5
		c-6.7-4.3-14.1-6.7-22-6.7c-5.5,0-9.8,1.2-13.5,3.7C219.4,191.7,220.6,194.1,224.3,192.9z M295.9,202.1c4.3,0.6,8,2.4,9.2,4.9
		c0.6,0.6,1.2,1.2,1.8,1.2l4.9-1.2c2.4-0.6,1.2-4.3-1.2-3.7l-3.1,1.2c0,0,0-0.6-0.6-0.6l1.2-0.6c2.4-1.2,0.6-4.3-1.2-3.1l-3.1,1.2
		c-3.1-1.8-7.3-3.1-11.6-2.4c-6.7,0.6-12.9,4.3-14.7,9.2c-0.6,2.4,2.4,3.7,3.7,1.2c1.2-2.4,3.7-4.9,8-6.1c-1.2,1.2-2.4,2.4-1.8,4.3
		c0,3.1,2.4,4.9,5.5,4.9s4.9-2.4,4.9-5.5C298.3,204.5,297.1,203.3,295.9,202.1z M291,251.1c0,0-0.6,0-1.2,0.6
		c-4.3,1.8-6.1,5.5-10.4,8c-3.1,3.1-7.3,4.9-11.6,4.9h-0.6c-5.5,0-9.8-3.1-13.5-6.1c-1.2-1.2-3.1-2.4-4.9-4.3
		c-1.2-1.2-2.4-1.8-4.3-2.4c-0.6,0-0.6,0-1.2-0.6c-2.4-0.6-0.6-4.3,1.2-3.1l0,0h0.6c5.5,1.8,14.7-1.8,21.4,1.2
		c6.7-3.1,15.9,0.6,21.4-1.2h0.6l0,0C291.6,246.8,292.8,250.4,291,251.1z M265.9,260.9c-0.6,0-1.8,0-2.4-0.6
		c-1.2-0.6-1.8,1.2-0.6,1.8s1.8,0.6,3.1,0.6C267.1,263.3,267.1,260.9,265.9,260.9z M281.8,252.3c-5.5,0.6-11.6,0.6-14.1,0.6l0,0
		c-3.1,0-9.2,0-14.1-0.6c1.2,1.2,2.4,2.4,4.3,3.7c2.4,1.8,5.5,2.4,10.4,2.4s8-1.2,10.4-2.4C279.4,255.3,280.6,254.1,281.8,252.3z
		 M246.9,207.6c0-1.8-0.6-3.7-1.8-4.3c4.3,1.2,6.7,3.7,8,6.1c0.6,2.4,4.3,1.2,3.7-1.2c-1.8-4.9-8-8.6-14.7-9.2
		c-4.3,0-8.6,0.6-11.6,2.4l-3.1-1.2c-2.4-1.2-3.7,2.4-1.2,3.1l1.2,0.6c0,0,0,0.6-0.6,0.6l-2.4-1.2c-2.4-0.6-3.1,3.1-1.2,3.7l4.9,1.2
		c1.2,0,1.8,0,2.4-1.2c1.2-2.4,4.9-4.9,9.2-4.9c-1.8,0.6-2.4,2.4-3.1,4.3c0,3.1,1.8,5.5,4.9,5.5
		C244.5,212.5,246.9,210.1,246.9,207.6z M379.7,445.1c-1.2,9.8,1.2,17.7,3.7,27.5c4.3,19.6,4.3,34.3,2.4,49.6h-3.7
		c0.6-2.4,0.6-3.7,0.6-4.9c1.2-20.8-0.6-33.7-3.1-43.5c-2.4-10.4-4.9-17.7-3.7-28.8c1.8-20.8,7.3-41.6,10.4-55.7
		c3.1-12.9,0.6-25.7,0-38.6c-1.2-25.1-11.6-33-34.3-36.1c-6.1-0.6-12.2-2.4-17.7-3.7l0,0c-11.6-3.7-22-8.6-33-14.7
		c2.4,3.7,5.5,8.6,9.2,14.7l0,0c1.2,1.8,2.4,3.7,3.7,6.1c5.5-1.2,11-1.8,17.1-1.8c2.4,0,1.8,3.7,0,3.7c-4.9-0.6-9.8,0-14.7,1.2
		c6.1,9.8,12.9,22,20.2,36.1c4.9,8.6,7.3,17.1,8,24.5c10.4,14.1,11.6,28.2,11,35.5c5.5-7.3,8.6-17.1,6.7-30
		c-1.2-9.8-7.3-19.6-17.1-27.5c-1.8-1.2,0.6-4.3,2.4-2.4c1.8,1.2,3.7,3.1,4.9,4.3c0-0.6,0-0.6,0-1.2c0.6-2.4,4.3-1.8,3.7,0.6
		c0,1.2-0.6,2.4-0.6,3.7c5.5,6.7,9.8,14.7,10.4,22c2.4,17.7-3.1,30-12.9,37.9c-1.2,3.7-4.9,6.1-8.6,6.1c0.6,3.1,2.4,11,2.4,23.9
		c0.6,15.9-0.6,39.8-7.3,68.5v1.2h-3.7l0.6-1.8c5.5-23.3,11-62.4,5.5-88.1c-6.1,16.5-15.9,33-18.4,51.4c-1.8,12.2,0,25.1,8.6,38.6
		h-4.3c-8-12.9-9.8-26.3-8-39.2c2.4-18.4,11.6-34.9,17.7-51.4v-0.6c-6.1,2.4-12.9,3.1-19.6,3.7c-1.2,0-3.1,0-4.3,0
		c-14.1,0-26.9-5.5-36.1-14.1c-3.7-3.7-6.1-8-8.6-12.2c-1.2-2.4-2.4-4.9-3.1-7.3c-1.8,8.6-6.1,15.9-12.9,21.4
		c-9.2,7.3-20.8,12.2-33.7,12.2c-8,0-16.5-1.2-23.9-3.7c2.4,5.5,4.9,11.6,7.3,17.1c4.9,11,9.2,23.3,11,35.5c1.8,12.9,0,25.7-8,39.2
		h-4.3c8.6-12.9,10.4-25.7,8.6-38.6c-2.4-19-12.2-34.9-18.4-51.4c-0.6,3.7-1.8,11-1.8,20.8c-0.6,15.9,0.6,39.2,7.3,67.3l0.6,1.8
		h-3.7v-1.2c-12.2-51.4-6.1-85.1-4.9-92.4c-3.7,0-7.3-2.4-9.2-6.7c-9.8-8-15.3-20.8-12.9-37.9c1.2-8,4.9-15.3,11-22.6
		c0-1.2-0.6-2.4-0.6-3.7c-0.6-2.4,3.1-3.1,3.7-0.6v0.6c1.2-1.2,3.1-3.1,4.9-4.3c1.8-1.2,4.3,1.2,2.4,2.4c-9.8,8-15.9,18.4-17.1,27.5
		c-1.8,13.5,1.2,23.9,7.3,30.6c-1.2-7.3,0.6-21.4,11-36.1c0.6-8,3.1-15.9,8-24.5c7.3-14.1,14.1-25.7,20.2-35.5
		c-4.9-1.2-10.4-1.8-15.3-1.2c-2.4,0-2.4-3.1,0-3.7c6.1-0.6,11.6,0.6,17.7,1.8c1.2-1.8,2.4-4.3,3.7-6.1l0,0c3.7-6.1,6.7-11,9.2-14.7
		c-5.5,3.1-11,6.1-11.6,6.1c-6.1,3.1-13.5,6.1-20.8,8.6l0,0c-6.1,1.8-12.2,3.1-17.7,3.7c-22.6,3.1-32.4,11-34.3,36.1
		c-0.6,12.9-3.1,25.7,0,38.6c3.1,14.1,8.6,34.9,10.4,55.7c1.2,10.4-1.2,18.4-3.7,28.8c-4.3,19-4.3,33.7-2.4,48.3h-3.7
		c-2.4-15.3-2.4-30,2.4-49.6c2.4-9.8,4.9-17.7,3.7-27.5c-1.8-20.8-7.3-41-10.4-55.1c-3.1-12.9-0.6-26.3,0-39.8
		c1.8-27.5,12.9-36.1,37.3-39.8c0,0,0.6,0,2.4-0.6l0,0c2.4-0.6,5.5-1.2,9.8-2.4c11.6-3.1,22.6-8,33-13.5c-2.4-1.2-4.3-2.4-6.1-3.7
		c-8.6-6.7-13.5-16.5-17.1-28.8c-3.7-10.4-6.1-23.3-8-37.3c-4.3-6.1-7.3-13.5-7.3-20.2c0-6.1,2.4-9.2,5.5-10.4
		c0-19.6,1.8-38.6,5.5-54.5c1.8-11.6,5.5-22.6,14.7-30.6c10.4-9.2,27.5-17.7,51.4-18.4c0,0,2.4,0,6.7,0c12.9,0.6,30.6,4.9,36.1,17.7
		c0,1.2,0.6,2.4,0.6,3.7c0.6,5.5,0,10.4-0.6,15.3c1.2,0.6,2.4,1.8,3.1,2.4c1.2-5.5,1.2-11.6,1.2-18.4c0-0.6,0-1.2,0-1.8
		c0.6,0,1.2-0.6,1.8-0.6c4.3,0,8.6,3.7,11.6,10.4c0.6,1.8,3.1,7.3,4.9,14.1c4.3,17.1,6.7,37.9,6.7,60v0.6c9.2,4.3,4.3,19.6,0.6,25.7
		c-0.6,1.2-1.8,2.4-2.4,4.3c-1.8,14.1-4.3,26.9-8,37.9c-3.1,12.2-8,22-15.9,28.8c-1.8,1.2-3.7,3.1-6.1,4.3c4.3,2.4,8,4.3,8.6,4.3
		c9.8,5.5,23.3,9.8,34.9,11.6l0,0c0.6,0,1.8,0,2.4,0.6c23.9,3.7,35.5,12.2,37.3,39.8c0.6,12.9,3.1,26.3,0,39.8
		C387.1,404.1,381.6,424.3,379.7,445.1z M202.9,183.1c0,1.8,0.6,2.4,1.2,2.4c0,0,0.6,0,1.2-1.2c9.2-23.3,33.7-40.4,61.8-40.4h0.6
		h0.6c28.2,0,52.6,16.5,62.4,40.4c0.6,1.2,1.2,1.2,1.2,1.2s1.2-0.6,1.2-2.4c0-33.7-20.8-66.7-64.9-66.7
		C223.7,116.4,202.9,149.5,202.9,183.1z M295.9,292.7c0,5.5,1.2,9.8,3.1,14.1c1.2,1.8-1.8,3.7-3.1,1.8c-1.8-3.7-3.1-8-3.1-12.9
		c0-2.4-0.6-4.3-0.6-7.3c0-4.3,0-8.6,1.2-12.9l0,0l-0.6,0.6l0,0c-4.3,2.4-9.2,4.3-13.5,6.7c-3.7,1.8-8,1.8-12.2,2.4
		c-8,0-8-0.6-14.1-3.7c-3.7-1.8-7.3-3.7-11.6-5.5c0,1.8,0.6,3.7,0.6,5.5c0,2.4,0.6,4.3,0.6,6.7l0,0v1.8v0.6c0,0.6,0,1.8,0,2.4
		c0,6.1-1.2,11-3.7,15.3c-1.2,1.8-4.3,0.6-3.1-1.8c1.8-3.7,3.1-8.6,3.1-14.1c-1.8,3.1-6.1,8.6-11.6,17.1l0,0
		c-1.2,1.8-2.4,4.3-4.3,6.7c9.2,2.4,19,6.1,28.2,6.7c2.4,0,1.8,3.7,0,3.7c-9.8-0.6-20.2-4.3-30-6.7c-6.1,9.8-12.9,22-20.8,36.7
		c-19.6,36.1,1.2,65.5,15.9,74.1h0.6c1.2,0,1.8,0,3.1,0c12.2,0,23.3-4.3,31.8-11c8.6-7.3,12.9-18.4,13.5-31.2v-4.9
		c-0.6-8.6-3.1-16.5-6.7-23.3c-1.2-1.8,1.8-3.7,3.1-1.8c2.4,4.3,4.9,9.2,6.1,14.7c2.4-7.3,6.1-15.3,11-20.2c1.8-1.8,4.3,0.6,2.4,2.4
		c-6.1,6.7-11,19-12.2,28.2v4.9c0,6.7,1.2,12.9,4.3,18.4c2.4,4.3,4.3,8,8,11c8.6,8,20.8,12.9,33.7,12.9c1.2,0,2.4,0,3.1,0h0.6
		c14.7-8,35.5-37.3,15.9-74.1c-8-14.7-14.7-26.9-20.8-36.7c-10.4,2.4-20.2,6.1-30.6,7.3c-2.4,0-2.4-3.1,0-3.7
		c9.8-0.6,19.6-4.3,28.8-6.7c-1.2-2.4-3.1-4.9-4.3-6.7C302,301.9,297.7,295.7,295.9,292.7z M319.8,233.3c0.6-1.2,6.1-3.1,6.7-3.7
		c8-4.9,14.7-15.9,14.7-25.1c0-9.8-8.6-9.8-13.5-2.4c-0.6,0.6-1.2,1.8-1.2,2.4l-0.6,0.6c0,0.6-0.6,1.2-0.6,1.2
		c0,0.6-0.6,0.6-0.6,1.2l0,0v0.6v0.6v0.6c-1.2,1.8-4.3,1.2-3.1-1.2v-0.6c0-0.6,0.6-1.8,1.2-3.1c1.8-12.2-1.2-14.1-4.9-25.1
		c-1.2-3.7-2.4-8-3.1-14.1c-3.1-3.1-6.7-5.5-10.4-8c0,0-3.1-1.8-3.7-2.4h-0.6c-1.2,1.8-2.4,3.1-4.3,4.9c-1.2,1.2-3.1,1.8-4.9,3.1
		c-8,4.3-17.7,6.1-28.8,7.3c-8,0.6-14.7,0.6-19.6,0.6c-12.9,0.6-21.4,8-23.3,19.6c0,1.2,0,1.8,0,1.8c0,2.4-1.8,3.1-3.1,1.2
		c0,0,0-0.6-0.6-1.2c-1.2-3.1-3.1-7.3-2.4-11.6c-1.2,1.8-1.8,4.3-3.1,6.1l0,0c0.6,3.7,1.8,6.7,3.7,9.8l0.6,0.6c0,1.2,0,3.1,0.6,4.9
		c0.6,1.8,1.2,3.7,1.8,5.5c0,0.6,0,0.6,0.6,1.2c0.6,2.4-2.4,3.7-3.7,1.2v-0.6c0-0.6-0.6-1.2-0.6-1.8c-1.8-4.9-6.1-11-12.2-9.8
		c-8,2.4-2.4,17.1,0,21.4c3.1,5.5,9.2,12.2,15.9,13.5c0.6,0,1.2,0.6,1.2,1.2c6.7,18.4,11.6,26.9,17.1,32.4c1.2,0.6,1.8,1.8,3.1,2.4
		l0.6,0.6c6.7,4.3,14.7,7.3,21.4,11c3.1,1.8,6.7,1.8,9.8,1.8c7.3,0,6.7,0,12.2-3.1c7.3-3.7,16.5-7.3,22.6-12.9
		C308.1,260.2,313,251.7,319.8,233.3z M268.3,320.8c-0.6,1.8-0.6,3.1-0.6,4.3c0-1.2-0.6-2.4-0.6-4.3c-0.6-2.4-3.7-1.8-3.7,0.6
		c0.6,3.1,1.2,4.9,1.8,6.1s1.2,2.4,3.1,2.4s2.4-1.2,3.1-2.4s1.2-3.1,1.2-6.1C272,319,269,318.4,268.3,320.8z"/>
</g>
</svg>
